<svg height="3118" width="720" xmlns="http://www.w3.org/2000/svg">
<rect height="3118" fill="#555" width="720"></rect>
<text fill="#7f7" font-family="Courier New" font-size="12" xml:space="preserve">
<tspan x="10" y="26">31 megabytes installed</tspan>
<tspan x="10" y="42"></tspan>
<tspan x="10" y="58">node_modules</tspan>
<tspan x="10" y="74">└─┬ rdb@1.6.2 </tspan>
<tspan x="10" y="90">  ├─┬ deferred@0.7.6 </tspan>
<tspan x="10" y="106">  │ ├── d@1.0.0 </tspan>
<tspan x="10" y="122">  │ ├─┬ es5-ext@0.10.15 </tspan>
<tspan x="10" y="138">  │ │ ├── es6-iterator@2.0.1 </tspan>
<tspan x="10" y="154">  │ │ └── es6-symbol@3.1.1 </tspan>
<tspan x="10" y="170">  │ ├── event-emitter@0.3.5 </tspan>
<tspan x="10" y="186">  │ ├── next-tick@1.0.0 </tspan>
<tspan x="10" y="202">  │ └── timers-ext@0.1.2 </tspan>
<tspan x="10" y="218">  ├── generic-pool@2.5.4 </tspan>
<tspan x="10" y="234">  ├─┬ mysql@2.13.0 </tspan>
<tspan x="10" y="250">  │ ├── bignumber.js@3.1.2 </tspan>
<tspan x="10" y="266">  │ ├─┬ readable-stream@1.1.14 </tspan>
<tspan x="10" y="282">  │ │ ├── core-util-is@1.0.2 </tspan>
<tspan x="10" y="298">  │ │ ├── inherits@2.0.3 </tspan>
<tspan x="10" y="314">  │ │ ├── isarray@0.0.1 </tspan>
<tspan x="10" y="330">  │ │ └── string_decoder@0.10.31 </tspan>
<tspan x="10" y="346">  │ └── sqlstring@2.2.0 </tspan>
<tspan x="10" y="362">  ├─┬ pg@6.1.5 </tspan>
<tspan x="10" y="378">  │ ├── buffer-writer@1.0.1 </tspan>
<tspan x="10" y="394">  │ ├── packet-reader@0.2.0 </tspan>
<tspan x="10" y="410">  │ ├── pg-connection-string@0.1.3 </tspan>
<tspan x="10" y="426">  │ ├─┬ pg-pool@1.7.1 </tspan>
<tspan x="10" y="442">  │ │ ├── generic-pool@2.4.3 </tspan>
<tspan x="10" y="458">  │ │ └── object-assign@4.1.0 </tspan>
<tspan x="10" y="474">  │ ├─┬ pg-types@1.11.0 </tspan>
<tspan x="10" y="490">  │ │ ├── ap@0.2.0 </tspan>
<tspan x="10" y="506">  │ │ ├── postgres-array@1.0.2 </tspan>
<tspan x="10" y="522">  │ │ ├── postgres-bytea@1.0.0 </tspan>
<tspan x="10" y="538">  │ │ ├── postgres-date@1.0.3 </tspan>
<tspan x="10" y="554">  │ │ └─┬ postgres-interval@1.0.2 </tspan>
<tspan x="10" y="570">  │ │   └── xtend@4.0.1 </tspan>
<tspan x="10" y="586">  │ ├─┬ pgpass@1.0.1 </tspan>
<tspan x="10" y="602">  │ │ └─┬ split@1.0.0 </tspan>
<tspan x="10" y="618">  │ │   └── through@2.3.8 </tspan>
<tspan x="10" y="634">  │ └── semver@4.3.2 </tspan>
<tspan x="10" y="650">  ├─┬ pg-query-stream@1.0.0 </tspan>
<tspan x="10" y="666">  │ ├── pg-cursor@1.0.0 </tspan>
<tspan x="10" y="682">  │ └─┬ readable-stream@2.2.9 </tspan>
<tspan x="10" y="698">  │   ├── buffer-shims@1.0.0 </tspan>
<tspan x="10" y="714">  │   ├── isarray@1.0.0 </tspan>
<tspan x="10" y="730">  │   ├── process-nextick-args@1.0.7 </tspan>
<tspan x="10" y="746">  │   ├── string_decoder@1.0.0 </tspan>
<tspan x="10" y="762">  │   └── util-deprecate@1.0.2 </tspan>
<tspan x="10" y="778">  ├─┬ promise@7.1.1 </tspan>
<tspan x="10" y="794">  │ └── asap@2.0.5 </tspan>
<tspan x="10" y="810">  ├─┬ sqlite3@3.1.8 </tspan>
<tspan x="10" y="826">  │ ├── nan@2.4.0 </tspan>
<tspan x="10" y="842">  │ └─┬ node-pre-gyp@0.6.31 </tspan>
<tspan x="10" y="858">  │   ├─┬ mkdirp@0.5.1 </tspan>
<tspan x="10" y="874">  │   │ └── minimist@0.0.8 </tspan>
<tspan x="10" y="890">  │   ├─┬ nopt@3.0.6 </tspan>
<tspan x="10" y="906">  │   │ └── abbrev@1.0.9 </tspan>
<tspan x="10" y="922">  │   ├─┬ npmlog@4.0.0 </tspan>
<tspan x="10" y="938">  │   │ ├─┬ are-we-there-yet@1.1.2 </tspan>
<tspan x="10" y="954">  │   │ │ ├── delegates@1.0.0 </tspan>
<tspan x="10" y="970">  │   │ │ └─┬ readable-stream@2.1.5 </tspan>
<tspan x="10" y="986">  │   │ │   ├── buffer-shims@1.0.0 </tspan>
<tspan x="10" y="1002">  │   │ │   ├── core-util-is@1.0.2 </tspan>
<tspan x="10" y="1018">  │   │ │   ├── inherits@2.0.3 </tspan>
<tspan x="10" y="1034">  │   │ │   ├── isarray@1.0.0 </tspan>
<tspan x="10" y="1050">  │   │ │   ├── process-nextick-args@1.0.7 </tspan>
<tspan x="10" y="1066">  │   │ │   ├── string_decoder@0.10.31 </tspan>
<tspan x="10" y="1082">  │   │ │   └── util-deprecate@1.0.2 </tspan>
<tspan x="10" y="1098">  │   │ ├── console-control-strings@1.1.0 </tspan>
<tspan x="10" y="1114">  │   │ ├─┬ gauge@2.6.0 </tspan>
<tspan x="10" y="1130">  │   │ │ ├── aproba@1.0.4 </tspan>
<tspan x="10" y="1146">  │   │ │ ├── has-color@0.1.7 </tspan>
<tspan x="10" y="1162">  │   │ │ ├── has-unicode@2.0.1 </tspan>
<tspan x="10" y="1178">  │   │ │ ├── object-assign@4.1.0 </tspan>
<tspan x="10" y="1194">  │   │ │ ├── signal-exit@3.0.1 </tspan>
<tspan x="10" y="1210">  │   │ │ ├─┬ string-width@1.0.2 </tspan>
<tspan x="10" y="1226">  │   │ │ │ ├─┬ code-point-at@1.0.1 </tspan>
<tspan x="10" y="1242">  │   │ │ │ │ └── number-is-nan@1.0.1 </tspan>
<tspan x="10" y="1258">  │   │ │ │ └─┬ is-fullwidth-code-point@1.0.0 </tspan>
<tspan x="10" y="1274">  │   │ │ │   └── number-is-nan@1.0.1 </tspan>
<tspan x="10" y="1290">  │   │ │ ├─┬ strip-ansi@3.0.1 </tspan>
<tspan x="10" y="1306">  │   │ │ │ └── ansi-regex@2.0.0 </tspan>
<tspan x="10" y="1322">  │   │ │ └── wide-align@1.1.0 </tspan>
<tspan x="10" y="1338">  │   │ └── set-blocking@2.0.0 </tspan>
<tspan x="10" y="1354">  │   ├─┬ rc@1.1.6 </tspan>
<tspan x="10" y="1370">  │   │ ├── deep-extend@0.4.1 </tspan>
<tspan x="10" y="1386">  │   │ ├── ini@1.3.4 </tspan>
<tspan x="10" y="1402">  │   │ ├── minimist@1.2.0 </tspan>
<tspan x="10" y="1418">  │   │ └── strip-json-comments@1.0.4 </tspan>
<tspan x="10" y="1434">  │   ├─┬ request@2.76.0 </tspan>
<tspan x="10" y="1450">  │   │ ├── aws-sign2@0.6.0 </tspan>
<tspan x="10" y="1466">  │   │ ├── aws4@1.5.0 </tspan>
<tspan x="10" y="1482">  │   │ ├── caseless@0.11.0 </tspan>
<tspan x="10" y="1498">  │   │ ├─┬ combined-stream@1.0.5 </tspan>
<tspan x="10" y="1514">  │   │ │ └── delayed-stream@1.0.0 </tspan>
<tspan x="10" y="1530">  │   │ ├── extend@3.0.0 </tspan>
<tspan x="10" y="1546">  │   │ ├── forever-agent@0.6.1 </tspan>
<tspan x="10" y="1562">  │   │ ├─┬ form-data@2.1.1 </tspan>
<tspan x="10" y="1578">  │   │ │ └── asynckit@0.4.0 </tspan>
<tspan x="10" y="1594">  │   │ ├─┬ har-validator@2.0.6 </tspan>
<tspan x="10" y="1610">  │   │ │ ├─┬ chalk@1.1.3 </tspan>
<tspan x="10" y="1626">  │   │ │ │ ├── ansi-styles@2.2.1 </tspan>
<tspan x="10" y="1642">  │   │ │ │ ├── escape-string-regexp@1.0.5 </tspan>
<tspan x="10" y="1658">  │   │ │ │ ├─┬ has-ansi@2.0.0 </tspan>
<tspan x="10" y="1674">  │   │ │ │ │ └── ansi-regex@2.0.0 </tspan>
<tspan x="10" y="1690">  │   │ │ │ ├─┬ strip-ansi@3.0.1 </tspan>
<tspan x="10" y="1706">  │   │ │ │ │ └── ansi-regex@2.0.0 </tspan>
<tspan x="10" y="1722">  │   │ │ │ └── supports-color@2.0.0 </tspan>
<tspan x="10" y="1738">  │   │ │ ├─┬ commander@2.9.0 </tspan>
<tspan x="10" y="1754">  │   │ │ │ └── graceful-readlink@1.0.1 </tspan>
<tspan x="10" y="1770">  │   │ │ ├─┬ is-my-json-valid@2.15.0 </tspan>
<tspan x="10" y="1786">  │   │ │ │ ├── generate-function@2.0.0 </tspan>
<tspan x="10" y="1802">  │   │ │ │ ├─┬ generate-object-property@1.2.0 </tspan>
<tspan x="10" y="1818">  │   │ │ │ │ └── is-property@1.0.2 </tspan>
<tspan x="10" y="1834">  │   │ │ │ ├── jsonpointer@4.0.0 </tspan>
<tspan x="10" y="1850">  │   │ │ │ └── xtend@4.0.1 </tspan>
<tspan x="10" y="1866">  │   │ │ └─┬ pinkie-promise@2.0.1 </tspan>
<tspan x="10" y="1882">  │   │ │   └── pinkie@2.0.4 </tspan>
<tspan x="10" y="1898">  │   │ ├─┬ hawk@3.1.3 </tspan>
<tspan x="10" y="1914">  │   │ │ ├── boom@2.10.1 </tspan>
<tspan x="10" y="1930">  │   │ │ ├── cryptiles@2.0.5 </tspan>
<tspan x="10" y="1946">  │   │ │ ├── hoek@2.16.3 </tspan>
<tspan x="10" y="1962">  │   │ │ └── sntp@1.0.9 </tspan>
<tspan x="10" y="1978">  │   │ ├─┬ http-signature@1.1.1 </tspan>
<tspan x="10" y="1994">  │   │ │ ├── assert-plus@0.2.0 </tspan>
<tspan x="10" y="2010">  │   │ │ ├─┬ jsprim@1.3.1 </tspan>
<tspan x="10" y="2026">  │   │ │ │ ├── extsprintf@1.0.2 </tspan>
<tspan x="10" y="2042">  │   │ │ │ ├── json-schema@0.2.3 </tspan>
<tspan x="10" y="2058">  │   │ │ │ └── verror@1.3.6 </tspan>
<tspan x="10" y="2074">  │   │ │ └─┬ sshpk@1.10.1 </tspan>
<tspan x="10" y="2090">  │   │ │   ├── asn1@0.2.3 </tspan>
<tspan x="10" y="2106">  │   │ │   ├── assert-plus@1.0.0 </tspan>
<tspan x="10" y="2122">  │   │ │   ├── bcrypt-pbkdf@1.0.0 </tspan>
<tspan x="10" y="2138">  │   │ │   ├── dashdash@1.14.0 </tspan>
<tspan x="10" y="2154">  │   │ │   ├── ecc-jsbn@0.1.1 </tspan>
<tspan x="10" y="2170">  │   │ │   ├── getpass@0.1.6 </tspan>
<tspan x="10" y="2186">  │   │ │   ├── jodid25519@1.0.2 </tspan>
<tspan x="10" y="2202">  │   │ │   ├── jsbn@0.1.0 </tspan>
<tspan x="10" y="2218">  │   │ │   └── tweetnacl@0.14.3 </tspan>
<tspan x="10" y="2234">  │   │ ├── is-typedarray@1.0.0 </tspan>
<tspan x="10" y="2250">  │   │ ├── isstream@0.1.2 </tspan>
<tspan x="10" y="2266">  │   │ ├── json-stringify-safe@5.0.1 </tspan>
<tspan x="10" y="2282">  │   │ ├─┬ mime-types@2.1.12 </tspan>
<tspan x="10" y="2298">  │   │ │ └── mime-db@1.24.0 </tspan>
<tspan x="10" y="2314">  │   │ ├── node-uuid@1.4.7 </tspan>
<tspan x="10" y="2330">  │   │ ├── oauth-sign@0.8.2 </tspan>
<tspan x="10" y="2346">  │   │ ├── qs@6.3.0 </tspan>
<tspan x="10" y="2362">  │   │ ├── stringstream@0.0.5 </tspan>
<tspan x="10" y="2378">  │   │ ├─┬ tough-cookie@2.3.2 </tspan>
<tspan x="10" y="2394">  │   │ │ └── punycode@1.4.1 </tspan>
<tspan x="10" y="2410">  │   │ └── tunnel-agent@0.4.3 </tspan>
<tspan x="10" y="2426">  │   ├─┬ rimraf@2.5.4 </tspan>
<tspan x="10" y="2442">  │   │ └─┬ glob@7.1.1 </tspan>
<tspan x="10" y="2458">  │   │   ├── fs.realpath@1.0.0 </tspan>
<tspan x="10" y="2474">  │   │   ├─┬ inflight@1.0.6 </tspan>
<tspan x="10" y="2490">  │   │   │ └── wrappy@1.0.2 </tspan>
<tspan x="10" y="2506">  │   │   ├── inherits@2.0.3 </tspan>
<tspan x="10" y="2522">  │   │   ├─┬ minimatch@3.0.3 </tspan>
<tspan x="10" y="2538">  │   │   │ └─┬ brace-expansion@1.1.6 </tspan>
<tspan x="10" y="2554">  │   │   │   ├── balanced-match@0.4.2 </tspan>
<tspan x="10" y="2570">  │   │   │   └── concat-map@0.0.1 </tspan>
<tspan x="10" y="2586">  │   │   ├─┬ once@1.4.0 </tspan>
<tspan x="10" y="2602">  │   │   │ └── wrappy@1.0.2 </tspan>
<tspan x="10" y="2618">  │   │   └── path-is-absolute@1.0.1 </tspan>
<tspan x="10" y="2634">  │   ├── semver@5.3.0 </tspan>
<tspan x="10" y="2650">  │   ├─┬ tar@2.2.1 </tspan>
<tspan x="10" y="2666">  │   │ ├── block-stream@0.0.9 </tspan>
<tspan x="10" y="2682">  │   │ ├─┬ fstream@1.0.10 </tspan>
<tspan x="10" y="2698">  │   │ │ └── graceful-fs@4.1.9 </tspan>
<tspan x="10" y="2714">  │   │ └── inherits@2.0.3 </tspan>
<tspan x="10" y="2730">  │   └─┬ tar-pack@3.3.0 </tspan>
<tspan x="10" y="2746">  │     ├─┬ debug@2.2.0 </tspan>
<tspan x="10" y="2762">  │     │ └── ms@0.7.1 </tspan>
<tspan x="10" y="2778">  │     ├─┬ fstream@1.0.10 </tspan>
<tspan x="10" y="2794">  │     │ ├── graceful-fs@4.1.9 </tspan>
<tspan x="10" y="2810">  │     │ └── inherits@2.0.3 </tspan>
<tspan x="10" y="2826">  │     ├─┬ fstream-ignore@1.0.5 </tspan>
<tspan x="10" y="2842">  │     │ ├── inherits@2.0.3 </tspan>
<tspan x="10" y="2858">  │     │ └─┬ minimatch@3.0.3 </tspan>
<tspan x="10" y="2874">  │     │   └─┬ brace-expansion@1.1.6 </tspan>
<tspan x="10" y="2890">  │     │     ├── balanced-match@0.4.2 </tspan>
<tspan x="10" y="2906">  │     │     └── concat-map@0.0.1 </tspan>
<tspan x="10" y="2922">  │     ├─┬ once@1.3.3 </tspan>
<tspan x="10" y="2938">  │     │ └── wrappy@1.0.2 </tspan>
<tspan x="10" y="2954">  │     ├─┬ readable-stream@2.1.5 </tspan>
<tspan x="10" y="2970">  │     │ ├── buffer-shims@1.0.0 </tspan>
<tspan x="10" y="2986">  │     │ ├── core-util-is@1.0.2 </tspan>
<tspan x="10" y="3002">  │     │ ├── inherits@2.0.3 </tspan>
<tspan x="10" y="3018">  │     │ ├── isarray@1.0.0 </tspan>
<tspan x="10" y="3034">  │     │ ├── process-nextick-args@1.0.7 </tspan>
<tspan x="10" y="3050">  │     │ ├── string_decoder@0.10.31 </tspan>
<tspan x="10" y="3066">  │     │ └── util-deprecate@1.0.2 </tspan>
<tspan x="10" y="3082">  │     └── uid-number@0.0.6 </tspan>
<tspan x="10" y="3098">  └── uuid@3.0.1</tspan>
</text>
</svg>
